<svg xmlns="http://www.w3.org/2000/svg" xmlns:xlink="http://www.w3.org/1999/xlink" viewBox="0 0 237.22 113.63"><defs><style>.cls-1{fill:#231f20;}.cls-2{fill:#666766;}.cls-3{fill:none;stroke-miterlimit:10;stroke-width:9px;stroke:url(#linear-gradient);}.cls-4{fill:url(#linear-gradient-2);}</style><linearGradient id="linear-gradient" y1="60.91" x2="240.3" y2="60.91" gradientUnits="userSpaceOnUse"><stop offset="0" stop-color="#00aeef"/><stop offset="0.03" stop-color="#0aa8eb"/><stop offset="0.24" stop-color="#4d83cf"/><stop offset="0.43" stop-color="#8565b8"/><stop offset="0.61" stop-color="#b14da6"/><stop offset="0.77" stop-color="#d03b99"/><stop offset="0.91" stop-color="#e33191"/><stop offset="1" stop-color="#ea2d8e"/></linearGradient><linearGradient id="linear-gradient-2" y1="21.62" x2="240.3" y2="21.62" xlink:href="#linear-gradient"/></defs><g id="Layer_2" data-name="Layer 2"><g id="Layer_1-2" data-name="Layer 1"><path class="cls-1" d="M15.6,49.6V18.76h9.06a8.7,8.7,0,0,1,4.51,1,6,6,0,0,1,2.55,3,12.23,12.23,0,0,1,.82,4.74,10,10,0,0,1-1,4.86,6.12,6.12,0,0,1-2.88,2.68c-1.23.56-7.41.84-7.41.84V49.6Zm5.63-17.67h2.14a5.21,5.21,0,0,0,2.38-.44,2.35,2.35,0,0,0,1.18-1.41,8.61,8.61,0,0,0,.32-2.6A12,12,0,0,0,27,24.75a2.35,2.35,0,0,0-1.06-1.54,5.17,5.17,0,0,0-2.57-.49H21.23Z" transform="translate(0 -1.39)"/><path class="cls-1" d="M41.87,49.94a7.78,7.78,0,0,1-4-.93,5.54,5.54,0,0,1-2.31-2.74,11.59,11.59,0,0,1-.74-4.36V35.28a11.61,11.61,0,0,1,.74-4.41,5.44,5.44,0,0,1,2.32-2.71,8,8,0,0,1,4-.91,7.23,7.23,0,0,1,4.09,1,5.41,5.41,0,0,1,2.1,2.87,14.62,14.62,0,0,1,.63,4.59v3.12H39.93v4.34a6.13,6.13,0,0,0,.21,1.76,1.77,1.77,0,0,0,.67,1,2,2,0,0,0,1.1.3,1.77,1.77,0,0,0,1.1-.32,1.82,1.82,0,0,0,.61-1,5.37,5.37,0,0,0,.19-1.58V41.53h4.84V43A7.22,7.22,0,0,1,47,48.15C45.86,49.35,44.16,49.94,41.87,49.94ZM39.93,36.27h3.88V34.18a7.19,7.19,0,0,0-.19-1.85,1.84,1.84,0,0,0-.61-1A1.93,1.93,0,0,0,41.83,31a1.68,1.68,0,0,0-1.1.34,2.06,2.06,0,0,0-.61,1.14,10.37,10.37,0,0,0-.19,2.29Z" transform="translate(0 -1.39)"/><path class="cls-1" d="M52.3,49.6v-22h5.18V31a9.53,9.53,0,0,1,2.29-2.8,4.1,4.1,0,0,1,2.51-.86l.4,0,.4.06v5.37a5.44,5.44,0,0,0-1-.32A4.71,4.71,0,0,0,61,32.31a3.61,3.61,0,0,0-1.87.5,5.18,5.18,0,0,0-1.6,1.63V49.6Z" transform="translate(0 -1.39)"/><path class="cls-1" d="M66.7,49.6V31.21H64.34V27.59H66.7V26.18a14.48,14.48,0,0,1,.36-3.44,3.73,3.73,0,0,1,1.52-2.27,6.3,6.3,0,0,1,3.52-.8c.49,0,.94,0,1.37.06s.92.09,1.45.17v3.85a5.4,5.4,0,0,0-.7-.14,5.14,5.14,0,0,0-.75-.06,1.35,1.35,0,0,0-1.25.58,3.27,3.27,0,0,0-.35,1.67v1.79h3v3.62h-3V49.6Z" transform="translate(0 -1.39)"/><path class="cls-1" d="M83.87,49.94a8,8,0,0,1-4-.89,5.62,5.62,0,0,1-2.34-2.61,10,10,0,0,1-.78-4.15V34.9a10,10,0,0,1,.78-4.15,5.62,5.62,0,0,1,2.34-2.61,8,8,0,0,1,4-.89,8.08,8.08,0,0,1,4,.89,5.61,5.61,0,0,1,2.36,2.61A10,10,0,0,1,91,34.9v7.39a10,10,0,0,1-.78,4.15,5.61,5.61,0,0,1-2.36,2.61A8.08,8.08,0,0,1,83.87,49.94Zm0-3.58a1.6,1.6,0,0,0,1.29-.49,2.52,2.52,0,0,0,.53-1.35,13.76,13.76,0,0,0,.12-1.89V34.56a13.26,13.26,0,0,0-.12-1.87,2.62,2.62,0,0,0-.53-1.35,1.9,1.9,0,0,0-2.59,0,2.81,2.81,0,0,0-.55,1.35,11.84,11.84,0,0,0-.13,1.87v8.07a12.29,12.29,0,0,0,.13,1.89,2.69,2.69,0,0,0,.55,1.35A1.6,1.6,0,0,0,83.91,46.36Z" transform="translate(0 -1.39)"/><path class="cls-1" d="M94.64,49.6v-22h5.18V31a9.37,9.37,0,0,1,2.29-2.8,4.1,4.1,0,0,1,2.51-.86l.4,0,.4.06v5.37a5.69,5.69,0,0,0-1-.32,4.71,4.71,0,0,0-1.12-.14,3.61,3.61,0,0,0-1.87.5,5.18,5.18,0,0,0-1.6,1.63V49.6Z" transform="translate(0 -1.39)"/><path class="cls-1" d="M108,49.6v-22h5v1.9a6.94,6.94,0,0,1,5.18-2.32,4,4,0,0,1,2.26.65,3.77,3.77,0,0,1,1.43,2.06,7.84,7.84,0,0,1,2.66-2.08,7.05,7.05,0,0,1,2.9-.63,3.81,3.81,0,0,1,2.09.59,4.09,4.09,0,0,1,1.45,1.75,7.12,7.12,0,0,1,.53,2.92V49.6h-5V32.88a2.68,2.68,0,0,0-.42-1.73,1.47,1.47,0,0,0-1.18-.47,3.27,3.27,0,0,0-1.35.34,4.74,4.74,0,0,0-1.35.95V49.6H117.3V32.88a2.61,2.61,0,0,0-.44-1.73,1.53,1.53,0,0,0-1.2-.47,3.08,3.08,0,0,0-1.33.34A5.28,5.28,0,0,0,113,32V49.6Z" transform="translate(0 -1.39)"/><path class="cls-1" d="M139.57,49.94a4.2,4.2,0,0,1-2.55-.78,5.17,5.17,0,0,1-1.64-2,5.74,5.74,0,0,1-.57-2.49,6.83,6.83,0,0,1,2.78-5.83,13.9,13.9,0,0,1,2.86-1.65c1.06-.47,2.14-.9,3.23-1.28V34a8,8,0,0,0-.13-1.6,1.85,1.85,0,0,0-.49-1,1.61,1.61,0,0,0-1.13-.35,1.57,1.57,0,0,0-1.62,1.17,5.6,5.6,0,0,0-.21,1.27L140,34.86l-4.91-.19c.07-2.53.7-4.41,1.88-5.61s3-1.81,5.39-1.81c2.21,0,3.81.61,4.82,1.83a7.54,7.54,0,0,1,1.5,5V44.19c0,.81,0,1.55.06,2.21s.09,1.26.15,1.79.12,1,.17,1.41h-4.64c-.08-.51-.18-1.09-.29-1.73s-.2-1.13-.25-1.43a5.63,5.63,0,0,1-1.44,2.42A3.91,3.91,0,0,1,139.57,49.94Zm1.91-3.84a1.91,1.91,0,0,0,.93-.25,3.81,3.81,0,0,0,.78-.59,2.89,2.89,0,0,0,.49-.61V38.52c-.55.33-1.08.66-1.58,1a7.69,7.69,0,0,0-1.29,1.08,4.29,4.29,0,0,0-.84,1.28,4.16,4.16,0,0,0-.28,1.6,3.37,3.37,0,0,0,.47,1.92A1.52,1.52,0,0,0,141.48,46.1Z" transform="translate(0 -1.39)"/><path class="cls-1" d="M152.52,49.6v-22h5.18V29.8A11,11,0,0,1,160.19,28a5.91,5.91,0,0,1,2.84-.7,3.33,3.33,0,0,1,2.17.66,4,4,0,0,1,1.18,1.78,7.35,7.35,0,0,1,.38,2.39V49.6h-5.18V33.11a3,3,0,0,0-.31-1.52,1.22,1.22,0,0,0-1.18-.53,2.74,2.74,0,0,0-1.16.3,7.31,7.31,0,0,0-1.23.76V49.6Z" transform="translate(0 -1.39)"/><path class="cls-1" d="M177.19,49.94a7.57,7.57,0,0,1-4.09-1,5.56,5.56,0,0,1-2.25-2.78,11.74,11.74,0,0,1-.7-4.28V35.28a11.89,11.89,0,0,1,.7-4.34,5.45,5.45,0,0,1,2.27-2.74,7.78,7.78,0,0,1,4.07-.95,8.87,8.87,0,0,1,3.87.74,4.5,4.5,0,0,1,2.18,2.25,9.07,9.07,0,0,1,.69,3.79v1.82h-4.87V33.91a7.27,7.27,0,0,0-.18-1.81,1.55,1.55,0,0,0-.59-1,1.89,1.89,0,0,0-1.1-.28,1.62,1.62,0,0,0-1.1.36,2,2,0,0,0-.59,1.16,10.55,10.55,0,0,0-.18,2.21v8.07a6.12,6.12,0,0,0,.46,2.87,1.58,1.58,0,0,0,1.45.75,1.73,1.73,0,0,0,1.16-.35,1.7,1.7,0,0,0,.53-1,8.17,8.17,0,0,0,.14-1.61V41h4.87v2.09a9.29,9.29,0,0,1-.7,3.77A4.79,4.79,0,0,1,181,49.16,8.31,8.31,0,0,1,177.19,49.94Z" transform="translate(0 -1.39)"/><path class="cls-1" d="M194,49.94a7.84,7.84,0,0,1-4-.93,5.57,5.57,0,0,1-2.3-2.74,11.59,11.59,0,0,1-.74-4.36V35.28a11.61,11.61,0,0,1,.74-4.41A5.44,5.44,0,0,1,190,28.16a8,8,0,0,1,4-.91,7.23,7.23,0,0,1,4.09,1,5.41,5.41,0,0,1,2.1,2.87,14.62,14.62,0,0,1,.63,4.59v3.12H192v4.34a6.13,6.13,0,0,0,.21,1.76,1.77,1.77,0,0,0,.67,1,2,2,0,0,0,1.1.3,1.77,1.77,0,0,0,1.1-.32,1.88,1.88,0,0,0,.61-1,5.37,5.37,0,0,0,.19-1.58V41.53h4.84V43a7.22,7.22,0,0,1-1.68,5.14C198,49.35,196.27,49.94,194,49.94ZM192,36.27h3.88V34.18a7.19,7.19,0,0,0-.19-1.85,1.9,1.9,0,0,0-.61-1,1.93,1.93,0,0,0-1.18-.32,1.68,1.68,0,0,0-1.1.34,2.06,2.06,0,0,0-.61,1.14,10.37,10.37,0,0,0-.19,2.29Z" transform="translate(0 -1.39)"/><path class="cls-1" d="M24,95.71a9.74,9.74,0,0,1-5.22-1.22A6.76,6.76,0,0,1,16,91a15.73,15.73,0,0,1-.84-5.41V74A15.21,15.21,0,0,1,16,68.69a6.56,6.56,0,0,1,2.78-3.4A9.94,9.94,0,0,1,24,64.11a10,10,0,0,1,5.27,1.18A6.66,6.66,0,0,1,32,68.69,15,15,0,0,1,32.89,74V85.62A15.16,15.16,0,0,1,32,91a6.94,6.94,0,0,1-2.78,3.5A9.62,9.62,0,0,1,24,95.71Zm0-4.15A3,3,0,0,0,26.05,91a3.11,3.11,0,0,0,.9-1.68A11.22,11.22,0,0,0,27.17,87V72.75A10.88,10.88,0,0,0,27,70.43a2.94,2.94,0,0,0-.9-1.62A3,3,0,0,0,24,68.22a3,3,0,0,0-2,.59A2.9,2.9,0,0,0,21,70.43a10.88,10.88,0,0,0-.22,2.32V87A12,12,0,0,0,21,89.27,2.86,2.86,0,0,0,21.92,91,3,3,0,0,0,24,91.56Z" transform="translate(0 -1.39)"/><path class="cls-1" d="M36.69,102.52V73.28h5.18V75A8.13,8.13,0,0,1,44,73.49a5.4,5.4,0,0,1,2.39-.55,4.12,4.12,0,0,1,2.44.68,4.65,4.65,0,0,1,1.49,1.81,9.18,9.18,0,0,1,.74,2.4,15.14,15.14,0,0,1,.21,2.46v7.46a14,14,0,0,1-.52,4,6.27,6.27,0,0,1-1.63,2.86,4.17,4.17,0,0,1-3,1.06,4.6,4.6,0,0,1-2.23-.57,9.94,9.94,0,0,1-2-1.45v8.91ZM44.16,92a1.41,1.41,0,0,0,1.23-.56A3.23,3.23,0,0,0,45.93,90a15.91,15.91,0,0,0,.13-2V80.06a10.34,10.34,0,0,0-.15-1.85,2.77,2.77,0,0,0-.57-1.31,1.52,1.52,0,0,0-1.22-.5,2.72,2.72,0,0,0-1.2.29,4.83,4.83,0,0,0-1.05.67V91.25a4.74,4.74,0,0,0,1.07.56A3.47,3.47,0,0,0,44.16,92Z" transform="translate(0 -1.39)"/><path class="cls-1" d="M61.18,95.56a6.64,6.64,0,0,1-3.3-.69,3.78,3.78,0,0,1-1.69-2,8.61,8.61,0,0,1-.5-3.08V76.71H53.48V73.28h2.21V66.69h5.22v6.59h3.35v3.43H60.91V89.35A2.2,2.2,0,0,0,61.4,91a2.07,2.07,0,0,0,1.49.47c.28,0,.55,0,.82,0l.78-.08v4L63,95.46A17.13,17.13,0,0,1,61.18,95.56Z" transform="translate(0 -1.39)"/><path class="cls-1" d="M67.61,69.78v-4.3h5.18v4.3Zm0,25.51v-22h5.18v22Z" transform="translate(0 -1.39)"/><path class="cls-1" d="M76.9,95.29v-22h5v1.91a6.92,6.92,0,0,1,2.47-1.77,7,7,0,0,1,2.71-.56,4,4,0,0,1,2.26.65,3.77,3.77,0,0,1,1.43,2.06,7.75,7.75,0,0,1,2.66-2.08,7.05,7.05,0,0,1,2.9-.63,3.81,3.81,0,0,1,2.09.59,4.09,4.09,0,0,1,1.45,1.75,7.12,7.12,0,0,1,.53,2.92V95.29h-5V78.57A2.68,2.68,0,0,0,95,76.84a1.47,1.47,0,0,0-1.18-.47,3.27,3.27,0,0,0-1.35.34,4.74,4.74,0,0,0-1.35,1V95.29H86.23V78.57a2.61,2.61,0,0,0-.44-1.73,1.53,1.53,0,0,0-1.2-.47,3.08,3.08,0,0,0-1.33.34,5.28,5.28,0,0,0-1.37,1V95.29Z" transform="translate(0 -1.39)"/><path class="cls-1" d="M104.39,69.78v-4.3h5.18v4.3Zm0,25.51v-22h5.18v22Z" transform="translate(0 -1.39)"/><path class="cls-1" d="M113,95.29V91.9l6.36-14.81h-5.82V73.28h11.31v3l-6.48,15.15h6.44v3.85Z" transform="translate(0 -1.39)"/><path class="cls-1" d="M132,95.63a4.2,4.2,0,0,1-2.55-.78,5.17,5.17,0,0,1-1.64-2,5.74,5.74,0,0,1-.57-2.49,6.83,6.83,0,0,1,2.78-5.83,14.37,14.37,0,0,1,2.86-1.65c1.06-.47,2.14-.9,3.23-1.28v-1.9a8,8,0,0,0-.13-1.6,1.85,1.85,0,0,0-.49-1,1.61,1.61,0,0,0-1.13-.35A1.57,1.57,0,0,0,132.77,78a5.6,5.6,0,0,0-.21,1.27l-.07,1.33-4.91-.19c.07-2.53.7-4.41,1.88-5.61s3-1.81,5.39-1.81c2.21,0,3.81.61,4.82,1.83a7.58,7.58,0,0,1,1.5,5V89.88c0,.82,0,1.55.06,2.21s.09,1.26.15,1.79.12,1,.17,1.41h-4.64c-.08-.51-.18-1.09-.29-1.73s-.2-1.13-.25-1.43a5.63,5.63,0,0,1-1.44,2.42A3.91,3.91,0,0,1,132,95.63Zm1.91-3.84a1.91,1.91,0,0,0,.93-.25,3.81,3.81,0,0,0,.78-.59,2.89,2.89,0,0,0,.49-.61V84.21c-.55.33-1.08.66-1.58,1a7.69,7.69,0,0,0-1.29,1.08,4.29,4.29,0,0,0-.84,1.28,4.16,4.16,0,0,0-.28,1.6,3.37,3.37,0,0,0,.47,1.92A1.52,1.52,0,0,0,133.94,91.79Z" transform="translate(0 -1.39)"/><path class="cls-1" d="M151.15,95.56a6.64,6.64,0,0,1-3.3-.69,3.78,3.78,0,0,1-1.69-2,8.61,8.61,0,0,1-.5-3.08V76.71h-2.2V73.28h2.2V66.69h5.22v6.59h3.35v3.43h-3.35V89.35a2.2,2.2,0,0,0,.49,1.62,2.07,2.07,0,0,0,1.49.47c.28,0,.55,0,.82,0l.78-.08v4l-1.51.17A17.13,17.13,0,0,1,151.15,95.56Z" transform="translate(0 -1.39)"/><path class="cls-1" d="M157.58,69.78v-4.3h5.18v4.3Zm0,25.51v-22h5.18v22Z" transform="translate(0 -1.39)"/><path class="cls-1" d="M173.53,95.63a8,8,0,0,1-4-.89,5.62,5.62,0,0,1-2.34-2.61,10,10,0,0,1-.78-4.15V80.59a10,10,0,0,1,.78-4.15,5.62,5.62,0,0,1,2.34-2.61,8,8,0,0,1,4-.89,8.06,8.06,0,0,1,4,.89,5.55,5.55,0,0,1,2.36,2.61,10,10,0,0,1,.78,4.15V88a10,10,0,0,1-.78,4.15,5.55,5.55,0,0,1-2.36,2.61A8.06,8.06,0,0,1,173.53,95.63Zm0-3.58a1.62,1.62,0,0,0,1.3-.49,2.68,2.68,0,0,0,.53-1.35,13.75,13.75,0,0,0,.11-1.89V80.25a13.35,13.35,0,0,0-.11-1.87,2.84,2.84,0,0,0-.53-1.35,1.6,1.6,0,0,0-1.3-.51,1.57,1.57,0,0,0-1.29.51,2.86,2.86,0,0,0-.56,1.35,13.17,13.17,0,0,0-.13,1.87v8.07a13.58,13.58,0,0,0,.13,1.89,2.7,2.7,0,0,0,.56,1.35A1.6,1.6,0,0,0,173.57,92.05Z" transform="translate(0 -1.39)"/><path class="cls-1" d="M184.19,95.29v-22h5.18v2.21a11.29,11.29,0,0,1,2.5-1.85,5.87,5.87,0,0,1,2.83-.7,3.24,3.24,0,0,1,2.17.67,3.77,3.77,0,0,1,1.18,1.77,7.09,7.09,0,0,1,.38,2.39V95.29h-5.17V78.8a3.14,3.14,0,0,0-.31-1.52,1.23,1.23,0,0,0-1.18-.53,2.74,2.74,0,0,0-1.16.3,7.81,7.81,0,0,0-1.24.76V95.29Z" transform="translate(0 -1.39)"/><path class="cls-2" d="M108.14,112.59a3.72,3.72,0,0,1-1.73-.37,2.34,2.34,0,0,1-1-1.14,5.24,5.24,0,0,1-.4-2l2.09-.31a4.84,4.84,0,0,0,.13,1.14,1.33,1.33,0,0,0,.33.63.72.72,0,0,0,.51.19.5.5,0,0,0,.5-.26,1.41,1.41,0,0,0,.11-.54,2,2,0,0,0-.33-1.16,4.73,4.73,0,0,0-.88-.94l-1-.84a5,5,0,0,1-1-1.2,3,3,0,0,1-.43-1.67,2.7,2.7,0,0,1,.83-2.15,3.25,3.25,0,0,1,2.26-.75,3,3,0,0,1,1.43.3,2.08,2.08,0,0,1,.82.79,3.4,3.4,0,0,1,.38,1,5.39,5.39,0,0,1,.11,1l-2.1.26c0-.33,0-.61-.06-.85a1.15,1.15,0,0,0-.2-.56.6.6,0,0,0-1,.09,1.21,1.21,0,0,0-.15.57,1.58,1.58,0,0,0,.29,1,5.17,5.17,0,0,0,.77.81l.91.81a6,6,0,0,1,1.22,1.39,3.43,3.43,0,0,1,.5,1.92,2.89,2.89,0,0,1-.35,1.41,2.62,2.62,0,0,1-1,1A3.16,3.16,0,0,1,108.14,112.59Z" transform="translate(0 -1.39)"/><path class="cls-2" d="M112.31,114.71v-1.54a4.53,4.53,0,0,0,.71,0,.83.83,0,0,0,.42-.21.54.54,0,0,0,.14-.41,2.14,2.14,0,0,0-.08-.56c0-.23-.12-.48-.2-.76l-1.86-6.64h2.09l1,4.55.75-4.55h2.1l-1.81,8.07a2.92,2.92,0,0,1-.56,1.28,2,2,0,0,1-.93.64,4.06,4.06,0,0,1-1.25.18Z" transform="translate(0 -1.39)"/><path class="cls-2" d="M118.21,112.42v-7.88h2.18v.63a2.56,2.56,0,0,1,.91-.61,2.85,2.85,0,0,1,1-.17,1.39,1.39,0,0,1,.82.24,1.47,1.47,0,0,1,.53.7,2.67,2.67,0,0,1,1-.73,2.71,2.71,0,0,1,1-.21,1.45,1.45,0,0,1,.81.22,1.47,1.47,0,0,1,.53.66,2.46,2.46,0,0,1,.19,1v6.12H125v-5.89a.72.72,0,0,0-.12-.47.39.39,0,0,0-.34-.14,1,1,0,0,0-.35.07,1.86,1.86,0,0,0-.39.21v6.22H121.6v-5.89a.72.72,0,0,0-.12-.47.42.42,0,0,0-.35-.14,1,1,0,0,0-.35.07,1.86,1.86,0,0,0-.39.21v6.22Z" transform="translate(0 -1.39)"/><path class="cls-2" d="M128.48,115V104.54h2.22v.57a2.74,2.74,0,0,1,.85-.53,2.29,2.29,0,0,1,.86-.18,1.57,1.57,0,0,1,.77.18,1.38,1.38,0,0,1,.52.5,2.13,2.13,0,0,1,.3.74,3.71,3.71,0,0,1,.1.9v3.4a3.78,3.78,0,0,1-.2,1.28,1.9,1.9,0,0,1-.58.85,1.42,1.42,0,0,1-.94.31,2,2,0,0,1-.85-.2,3.28,3.28,0,0,1-.83-.54V115Zm2.81-3.88a.48.48,0,0,0,.34-.13.77.77,0,0,0,.18-.32,1.51,1.51,0,0,0,.06-.44v-3.68a1.34,1.34,0,0,0-.05-.42.65.65,0,0,0-.18-.29.41.41,0,0,0-.31-.11.8.8,0,0,0-.34.07,1.37,1.37,0,0,0-.29.2v4.91a1.15,1.15,0,0,0,.29.15A.8.8,0,0,0,131.29,111.13Z" transform="translate(0 -1.39)"/><path class="cls-2" d="M138,112.56a3.5,3.5,0,0,1-1.47-.29,2.09,2.09,0,0,1-1-.86,2.73,2.73,0,0,1-.34-1.43v-3a2.73,2.73,0,0,1,.34-1.43,2.09,2.09,0,0,1,1-.86,3.5,3.5,0,0,1,1.47-.29,3.46,3.46,0,0,1,1.46.29,2.14,2.14,0,0,1,1,.86,2.83,2.83,0,0,1,.34,1.43v3a2.83,2.83,0,0,1-.34,1.43,2.14,2.14,0,0,1-1,.86A3.46,3.46,0,0,1,138,112.56Zm0-1.48a.45.45,0,0,0,.34-.11.65.65,0,0,0,.17-.33,2.44,2.44,0,0,0,.05-.51v-3.3a2.44,2.44,0,0,0-.05-.51.65.65,0,0,0-.17-.33.45.45,0,0,0-.34-.12.47.47,0,0,0-.34.12.75.75,0,0,0-.18.33,2.44,2.44,0,0,0,0,.51v3.3a2.44,2.44,0,0,0,0,.51.75.75,0,0,0,.18.33A.47.47,0,0,0,138,111.08Z" transform="translate(0 -1.39)"/><path class="cls-2" d="M144.38,112.56a3,3,0,0,1-1.72-.47,3.2,3.2,0,0,1-1.13-1.51l1.51-.67a2.57,2.57,0,0,0,.52.84.85.85,0,0,0,.64.31.59.59,0,0,0,.39-.11.35.35,0,0,0,.13-.3.81.81,0,0,0-.24-.57,7.54,7.54,0,0,0-.85-.77l-.57-.48a5.53,5.53,0,0,1-1-1,2,2,0,0,1-.36-1.23,2,2,0,0,1,.33-1.13,2.33,2.33,0,0,1,.9-.77,2.71,2.71,0,0,1,1.2-.27,2.52,2.52,0,0,1,1.62.53,2.79,2.79,0,0,1,.91,1.5l-1.43.66a2.36,2.36,0,0,0-.23-.52,1.73,1.73,0,0,0-.36-.44.75.75,0,0,0-.46-.17.51.51,0,0,0-.35.12.45.45,0,0,0-.13.33.84.84,0,0,0,.3.56,8.31,8.31,0,0,0,.81.72l.56.49c.22.19.45.4.67.61a3.17,3.17,0,0,1,.53.73,1.77,1.77,0,0,1,.22.9,2,2,0,0,1-.34,1.16,2.07,2.07,0,0,1-.9.73A2.78,2.78,0,0,1,144.38,112.56Z" transform="translate(0 -1.39)"/><path class="cls-2" d="M147.74,103.2v-1.54H150v1.54Zm0,9.22v-7.88H150v7.88Z" transform="translate(0 -1.39)"/><path class="cls-2" d="M152.74,112.56a1.36,1.36,0,0,1-.81-.24,1.46,1.46,0,0,1-.5-.66,2.81,2.81,0,0,1-.16-.94v-6.18h2.22v5.92a.77.77,0,0,0,.11.44.37.37,0,0,0,.36.16.75.75,0,0,0,.31-.08l.34-.17v-6.27h2.21v7.88h-2.21v-.72a4,4,0,0,1-.89.63A2.24,2.24,0,0,1,152.74,112.56Z" transform="translate(0 -1.39)"/><path class="cls-2" d="M158.23,112.42v-7.88h2.18v.63a2.56,2.56,0,0,1,.91-.61,2.85,2.85,0,0,1,1-.17,1.39,1.39,0,0,1,.82.24,1.47,1.47,0,0,1,.53.7,2.67,2.67,0,0,1,1-.73,2.71,2.71,0,0,1,1-.21,1.45,1.45,0,0,1,.81.22,1.47,1.47,0,0,1,.53.66,2.46,2.46,0,0,1,.19,1v6.12H165v-5.89a.72.72,0,0,0-.12-.47.39.39,0,0,0-.34-.14,1,1,0,0,0-.35.07,1.86,1.86,0,0,0-.39.21v6.22h-2.16v-5.89a.72.72,0,0,0-.12-.47.42.42,0,0,0-.35-.14,1,1,0,0,0-.35.07,1.86,1.86,0,0,0-.39.21v6.22Z" transform="translate(0 -1.39)"/><path class="cls-2" d="M171.85,112.42v-1.61l2.65-4.06c.2-.3.39-.59.57-.88a5.22,5.22,0,0,0,.43-.85,2.42,2.42,0,0,0,.17-.92,1.09,1.09,0,0,0-.19-.71.65.65,0,0,0-.52-.23.81.81,0,0,0-.57.2,1.07,1.07,0,0,0-.28.55,3.57,3.57,0,0,0-.07.76v.55h-2.21v-.59a4.59,4.59,0,0,1,.31-1.75,2.53,2.53,0,0,1,1-1.21,3.17,3.17,0,0,1,1.78-.45,3.05,3.05,0,0,1,2.25.77,3,3,0,0,1,.75,2.15,3.55,3.55,0,0,1-.21,1.24,5.58,5.58,0,0,1-.56,1.12l-.74,1.12-2,3h3.23v1.78Z" transform="translate(0 -1.39)"/><path class="cls-2" d="M182.06,112.63a3.18,3.18,0,0,1-1.67-.41,2.53,2.53,0,0,1-1-1.11,3.71,3.71,0,0,1-.34-1.65v-5a4.23,4.23,0,0,1,.32-1.7,2.51,2.51,0,0,1,1-1.14,3.25,3.25,0,0,1,1.71-.41,3.18,3.18,0,0,1,1.69.41,2.51,2.51,0,0,1,1,1.14,4.23,4.23,0,0,1,.32,1.7v5a3.92,3.92,0,0,1-.34,1.65,2.59,2.59,0,0,1-1,1.11A3.15,3.15,0,0,1,182.06,112.63Zm0-2a.54.54,0,0,0,.47-.21,1.1,1.1,0,0,0,.17-.49,3,3,0,0,0,0-.48v-4.9a5.11,5.11,0,0,0,0-.52,1.11,1.11,0,0,0-.17-.52.54.54,0,0,0-.48-.23.54.54,0,0,0-.49.23,1.23,1.23,0,0,0-.17.52,5.11,5.11,0,0,0,0,.52v4.9c0,.13,0,.3,0,.48a1.12,1.12,0,0,0,.19.49A.51.51,0,0,0,182.06,110.59Z" transform="translate(0 -1.39)"/><path class="cls-2" d="M186.37,112.42v-1.61l2.64-4.06c.2-.3.39-.59.57-.88A4.53,4.53,0,0,0,190,105a2.43,2.43,0,0,0,.18-.92,1.09,1.09,0,0,0-.2-.71.63.63,0,0,0-.51-.23.82.82,0,0,0-.58.2,1.15,1.15,0,0,0-.28.55,3.57,3.57,0,0,0-.07.76v.55h-2.21v-.59a4.59,4.59,0,0,1,.31-1.75,2.53,2.53,0,0,1,1-1.21,3.19,3.19,0,0,1,1.79-.45,3,3,0,0,1,2.24.77,3,3,0,0,1,.76,2.15,3.33,3.33,0,0,1-.22,1.24,5.54,5.54,0,0,1-.55,1.12c-.24.35-.48.73-.75,1.12l-2,3h3.24v1.78Z" transform="translate(0 -1.39)"/><path class="cls-2" d="M196.38,112.63a3.26,3.26,0,0,1-1.82-.44,2.35,2.35,0,0,1-.94-1.22,5.29,5.29,0,0,1-.28-1.81v-.39h2.27v.39a5.17,5.17,0,0,0,.07.89.91.91,0,0,0,.25.5.74.74,0,0,0,.49.15.62.62,0,0,0,.47-.16,1,1,0,0,0,.21-.49,4.67,4.67,0,0,0,.06-.82,2.75,2.75,0,0,0-.23-1.25,1,1,0,0,0-.93-.44h-.43V106h.37a1,1,0,0,0,1-.4,2.39,2.39,0,0,0,.25-1.22,2.19,2.19,0,0,0-.18-1,.64.64,0,0,0-.63-.34.56.56,0,0,0-.59.39,2.69,2.69,0,0,0-.15,1V105h-2.27v-.67a3.6,3.6,0,0,1,.36-1.68,2.43,2.43,0,0,1,1-1,3.52,3.52,0,0,1,1.62-.35,3.61,3.61,0,0,1,1.64.34,2.47,2.47,0,0,1,1,1,3.41,3.41,0,0,1,.37,1.65,3.14,3.14,0,0,1-.4,1.62,1.61,1.61,0,0,1-.95.8,2,2,0,0,1,.68.44,2,2,0,0,1,.49.81,4,4,0,0,1,.18,1.31,4.92,4.92,0,0,1-.3,1.78,2.38,2.38,0,0,1-1,1.22A3.12,3.12,0,0,1,196.38,112.63Z" transform="translate(0 -1.39)"/><path class="cls-2" d="M17,13.23V3.33H15.29V1.39h5.77V3.33H19.41v9.9Z" transform="translate(0 -1.39)"/><path class="cls-2" d="M21.92,13.23V1.39h2.21V5.52a3,3,0,0,1,.92-.68,2.45,2.45,0,0,1,1-.21,1.26,1.26,0,0,1,.8.26,1.57,1.57,0,0,1,.48.7,3,3,0,0,1,.16,1v6.62H25.3V6.94a1,1,0,0,0-.09-.47.39.39,0,0,0-.36-.16.88.88,0,0,0-.32.08,2.39,2.39,0,0,0-.4.23v6.61Z" transform="translate(0 -1.39)"/><path class="cls-2" d="M30.47,13.37a1.62,1.62,0,0,1-1-.31,1.89,1.89,0,0,1-.61-.78,2.34,2.34,0,0,1-.2-1A2.72,2.72,0,0,1,28.94,10a2.8,2.8,0,0,1,.77-.9,5,5,0,0,1,1.05-.63c.38-.17.76-.32,1.13-.46V7.15a1.51,1.51,0,0,0,0-.39.58.58,0,0,0-.13-.26.38.38,0,0,0-.29-.1.4.4,0,0,0-.29.09.49.49,0,0,0-.15.24,3.07,3.07,0,0,0,0,.34l-.06.62L28.81,7.6a3.4,3.4,0,0,1,.76-2.24,2.68,2.68,0,0,1,2.06-.73,2.24,2.24,0,0,1,1.8.71A2.8,2.8,0,0,1,34,7.18v3.94c0,.35,0,.66,0,.92a6.34,6.34,0,0,0,.06.69c0,.19,0,.36.06.5h-2c0-.23-.06-.47-.1-.73A3.88,3.88,0,0,0,32,12a2.13,2.13,0,0,1-.51.93A1.28,1.28,0,0,1,30.47,13.37Zm.8-1.61a.7.7,0,0,0,.25,0,.83.83,0,0,0,.21-.17,1,1,0,0,0,.16-.2V9c-.18.12-.35.24-.5.36a2.16,2.16,0,0,0-.4.4,1.83,1.83,0,0,0-.25.48,1.7,1.7,0,0,0-.09.57,1.31,1.31,0,0,0,.16.68A.52.52,0,0,0,31.27,11.76Z" transform="translate(0 -1.39)"/><path class="cls-2" d="M35.44,13.23V1.39h2.21V13.23Z" transform="translate(0 -1.39)"/><path class="cls-2" d="M39.08,3.35V1.7h2.24V3.35Zm0,9.88V4.78h2.23v8.45Z" transform="translate(0 -1.39)"/><path class="cls-2" d="M44.32,13.37a1.6,1.6,0,0,1-1-.31,1.81,1.81,0,0,1-.61-.78,2.35,2.35,0,0,1-.21-1A2.84,2.84,0,0,1,42.78,10a2.92,2.92,0,0,1,.77-.9,5,5,0,0,1,1.05-.63c.39-.17.76-.32,1.14-.46V7.15a2.13,2.13,0,0,0,0-.39.59.59,0,0,0-.14-.26.37.37,0,0,0-.29-.1.44.44,0,0,0-.29.09.42.42,0,0,0-.14.24,1.72,1.72,0,0,0-.06.34l-.05.62L42.65,7.6a3.4,3.4,0,0,1,.76-2.24,2.71,2.71,0,0,1,2.07-.73,2.2,2.2,0,0,1,1.79.71,2.75,2.75,0,0,1,.59,1.84v3.94c0,.35,0,.66,0,.92s0,.49,0,.69,0,.36.06.5H46c0-.23-.06-.47-.1-.73a2.48,2.48,0,0,0-.08-.47,2.13,2.13,0,0,1-.51.93A1.26,1.26,0,0,1,44.32,13.37Zm.79-1.61a.7.7,0,0,0,.25,0,.68.68,0,0,0,.21-.17,1.06,1.06,0,0,0,.17-.2V9c-.19.12-.35.24-.51.36a2.45,2.45,0,0,0-.39.4,1.87,1.87,0,0,0-.26.48,1.71,1.71,0,0,0-.08.57,1.22,1.22,0,0,0,.16.68A.52.52,0,0,0,45.11,11.76Z" transform="translate(0 -1.39)"/><path class="cls-2" d="M52.8,13.23V1.39h3.71a3,3,0,0,1,1.64.4A2.36,2.36,0,0,1,59.1,3a4.88,4.88,0,0,1,.32,1.86A4.23,4.23,0,0,1,59,6.92a2.27,2.27,0,0,1-1.15,1,4.37,4.37,0,0,1-1.62.28h-1v5Zm2.44-6.86h.82a1.15,1.15,0,0,0,.68-.17.86.86,0,0,0,.31-.53,4.3,4.3,0,0,0,.08-.89,4.74,4.74,0,0,0-.06-.8,1,1,0,0,0-.3-.55,1.09,1.09,0,0,0-.72-.2h-.81Z" transform="translate(0 -1.39)"/><path class="cls-2" d="M60.5,13.23V4.78h2.22v1.4a4.7,4.7,0,0,1,.76-1.12,1.3,1.3,0,0,1,.93-.38h.19l.15,0V7.09A2.52,2.52,0,0,0,64.42,7a1.67,1.67,0,0,0-.39,0,1.29,1.29,0,0,0-.71.22,2.44,2.44,0,0,0-.6.6v5.5Z" transform="translate(0 -1.39)"/><path class="cls-2" d="M68.27,13.37A3.07,3.07,0,0,1,66.8,13a2.18,2.18,0,0,1-.94-1,3.29,3.29,0,0,1-.33-1.53V7.45a3.26,3.26,0,0,1,.33-1.53,2.18,2.18,0,0,1,.94-1,3.12,3.12,0,0,1,1.47-.33A3,3,0,0,1,69.72,5a2.13,2.13,0,0,1,.88,1,3.76,3.76,0,0,1,.29,1.55v1.7H67.73v1.62a2,2,0,0,0,.06.53.64.64,0,0,0,.19.29.5.5,0,0,0,.29.09.55.55,0,0,0,.29-.08.55.55,0,0,0,.21-.26,1.28,1.28,0,0,0,.07-.48V10h2v.82a2.5,2.5,0,0,1-.7,1.93A2.7,2.7,0,0,1,68.27,13.37ZM67.73,8h1.11V7.19a1.54,1.54,0,0,0-.07-.53.51.51,0,0,0-.21-.26.58.58,0,0,0-.3-.07.43.43,0,0,0-.28.09.54.54,0,0,0-.19.29,2.44,2.44,0,0,0-.06.61Z" transform="translate(0 -1.39)"/><path class="cls-2" d="M74.53,13.37a2.87,2.87,0,0,1-1.72-.49,3.55,3.55,0,0,1-1.13-1.63l1.51-.71a2.92,2.92,0,0,0,.52.9.87.87,0,0,0,.64.32.54.54,0,0,0,.39-.11.41.41,0,0,0,.13-.32.93.93,0,0,0-.24-.62,10.17,10.17,0,0,0-.85-.82l-.57-.51a6.41,6.41,0,0,1-1-1.1A2.33,2.33,0,0,1,71.86,7a2.25,2.25,0,0,1,.33-1.22,2.3,2.3,0,0,1,.9-.82,2.59,2.59,0,0,1,1.2-.29,2.39,2.39,0,0,1,1.62.57,3,3,0,0,1,.91,1.61l-1.43.7A2.58,2.58,0,0,0,75.16,7a1.72,1.72,0,0,0-.36-.47.67.67,0,0,0-.46-.19.46.46,0,0,0-.35.13.5.5,0,0,0-.13.35.9.9,0,0,0,.3.6,9.13,9.13,0,0,0,.81.77l.56.53c.22.21.45.42.67.66a3.4,3.4,0,0,1,.53.77,2.2,2.2,0,0,1,.22,1,2.23,2.23,0,0,1-.35,1.25,2.17,2.17,0,0,1-.89.78A2.79,2.79,0,0,1,74.53,13.37Z" transform="translate(0 -1.39)"/><path class="cls-2" d="M80.46,13.37A3.07,3.07,0,0,1,79,13a2.23,2.23,0,0,1-.94-1,3.29,3.29,0,0,1-.33-1.53V7.45a3.26,3.26,0,0,1,.33-1.53,2.2,2.2,0,0,1,1-1,3.44,3.44,0,0,1,2.92,0,2.17,2.17,0,0,1,.87,1,3.61,3.61,0,0,1,.29,1.55v1.7H79.92v1.62a1.62,1.62,0,0,0,.07.53.57.57,0,0,0,.19.29.47.47,0,0,0,.28.09.61.61,0,0,0,.3-.08.6.6,0,0,0,.2-.26,1.26,1.26,0,0,0,.08-.48V10h2v.82a2.53,2.53,0,0,1-.69,1.93A2.75,2.75,0,0,1,80.46,13.37ZM79.92,8H81V7.19A1.52,1.52,0,0,0,81,6.66a.55.55,0,0,0-.2-.26.62.62,0,0,0-.31-.07.45.45,0,0,0-.28.09.49.49,0,0,0-.18.29,2,2,0,0,0-.07.61Z" transform="translate(0 -1.39)"/><path class="cls-2" d="M84.3,13.23V4.78h2.22v.85a3.36,3.36,0,0,1,.91-.73,1.94,1.94,0,0,1,1-.27,1.29,1.29,0,0,1,.81.26,1.57,1.57,0,0,1,.48.7,3,3,0,0,1,.17,1v6.62H87.67V6.94a1,1,0,0,0-.1-.47.38.38,0,0,0-.35-.16.88.88,0,0,0-.32.08,1.93,1.93,0,0,0-.38.23v6.61Z" transform="translate(0 -1.39)"/><path class="cls-2" d="M93.65,13.31A2.87,2.87,0,0,1,92.28,13a1.46,1.46,0,0,1-.66-.82,4,4,0,0,1-.18-1.29V6.34h-.76V4.78h.76V2.21H93.7V4.78h1.11V6.34H93.7V10.7a.62.62,0,0,0,.19.52.75.75,0,0,0,.5.16,1.72,1.72,0,0,0,.33,0l.27,0V13.2l-.56.07A6.57,6.57,0,0,1,93.65,13.31Z" transform="translate(0 -1.39)"/><path class="cls-2" d="M98.47,13.37a2.9,2.9,0,0,1-1.73-.49,3.54,3.54,0,0,1-1.12-1.63l1.51-.71a3.14,3.14,0,0,0,.51.9.9.9,0,0,0,.65.32.57.57,0,0,0,.39-.11.41.41,0,0,0,.13-.32.93.93,0,0,0-.24-.62,10.17,10.17,0,0,0-.85-.82l-.57-.51a6.41,6.41,0,0,1-1-1.1A2.33,2.33,0,0,1,95.8,7a2.25,2.25,0,0,1,.33-1.22A2.34,2.34,0,0,1,97,4.92a2.65,2.65,0,0,1,1.2-.29,2.4,2.4,0,0,1,1.63.57,3.07,3.07,0,0,1,.91,1.61l-1.43.7A3.22,3.22,0,0,0,99.1,7a1.72,1.72,0,0,0-.36-.47.69.69,0,0,0-.46-.19.45.45,0,0,0-.48.48.93.93,0,0,0,.29.6,11.24,11.24,0,0,0,.82.77l.55.53a8.33,8.33,0,0,1,.67.66,3.15,3.15,0,0,1,.54.77,2.19,2.19,0,0,1,.21,1,2.23,2.23,0,0,1-.34,1.25,2.17,2.17,0,0,1-.89.78A2.79,2.79,0,0,1,98.47,13.37Z" transform="translate(0 -1.39)"/><polyline class="cls-3" points="2.79 101.14 83.89 37.21 145.66 88.42 218.03 20.44"/><polygon class="cls-4" points="220.19 40.82 214.06 24.17 197.82 17.02 237.22 2.41 220.19 40.82"/><path class="cls-1" d="M94.64,49.6v-22h5.18V31a9.37,9.37,0,0,1,2.29-2.8,4.1,4.1,0,0,1,2.51-.86l.4,0,.4.06v5.37a5.69,5.69,0,0,0-1-.32,4.71,4.71,0,0,0-1.12-.14,3.61,3.61,0,0,0-1.87.5,5.18,5.18,0,0,0-1.6,1.63V49.6Z" transform="translate(0 -1.39)"/><path class="cls-1" d="M108,49.6v-22h5v1.9a6.94,6.94,0,0,1,5.18-2.32,4,4,0,0,1,2.26.65,3.77,3.77,0,0,1,1.43,2.06,7.84,7.84,0,0,1,2.66-2.08,7.05,7.05,0,0,1,2.9-.63,3.78,3.78,0,0,1,2.09.59,4.09,4.09,0,0,1,1.45,1.75,7.12,7.12,0,0,1,.53,2.92V49.6h-5V32.88a2.68,2.68,0,0,0-.42-1.73,1.47,1.47,0,0,0-1.18-.47,3.27,3.27,0,0,0-1.35.34,4.74,4.74,0,0,0-1.35.95V49.6H117.3V32.88a2.61,2.61,0,0,0-.44-1.73,1.53,1.53,0,0,0-1.2-.47,3.08,3.08,0,0,0-1.33.34A5.28,5.28,0,0,0,113,32V49.6Z" transform="translate(0 -1.39)"/><path class="cls-1" d="M26,91a3.11,3.11,0,0,0,.9-1.68A11.19,11.19,0,0,0,27.16,87V72.75a10.85,10.85,0,0,0-.23-2.32,2.94,2.94,0,0,0-.9-1.62A3,3,0,0,0,24,68.22a3,3,0,0,0-2,.59A2.83,2.83,0,0,0,21,70.43a10.24,10.24,0,0,0-.23,2.32v6.07l-5.68-.67V74A15.21,15.21,0,0,1,16,68.69a6.56,6.56,0,0,1,2.78-3.4A10,10,0,0,1,24,64.11a10,10,0,0,1,5.27,1.18A6.66,6.66,0,0,1,32,68.69,15,15,0,0,1,32.87,74V85.62A15.16,15.16,0,0,1,32,91a6.94,6.94,0,0,1-2.78,3.5" transform="translate(0 -1.39)"/><path class="cls-1" d="M36.69,102.45V73.21h5.18v1.67A7.85,7.85,0,0,1,44,73.42a5.41,5.41,0,0,1,2.39-.56,4,4,0,0,1,2.44.69,4.65,4.65,0,0,1,1.49,1.81,9.18,9.18,0,0,1,.74,2.4,15.11,15.11,0,0,1,.21,2.45v7.46a14,14,0,0,1-.52,4,6.13,6.13,0,0,1-1.63,2.86,4.18,4.18,0,0,1-3,1.07A4.5,4.5,0,0,1,43.87,95a10.29,10.29,0,0,1-2-1.44v8.91Zm7.47-10.51a1.43,1.43,0,0,0,1.23-.55,3.32,3.32,0,0,0,.54-1.49,15.91,15.91,0,0,0,.13-2V80a10.22,10.22,0,0,0-.15-1.84,2.76,2.76,0,0,0-.57-1.32,1.51,1.51,0,0,0-1.22-.49,2.7,2.7,0,0,0-1.2.28,5.24,5.24,0,0,0-1.05.67v13.9a4.71,4.71,0,0,0,1.07.55A3.47,3.47,0,0,0,44.16,91.94Z" transform="translate(0 -1.39)"/><path class="cls-1" d="M173.57,92.05a1.6,1.6,0,0,0,1.3-.49,2.6,2.6,0,0,0,.53-1.35,13.75,13.75,0,0,0,.11-1.89V80.25a13.35,13.35,0,0,0-.11-1.87,2.74,2.74,0,0,0-.53-1.35,1.58,1.58,0,0,0-1.3-.51l0-3.58a8.06,8.06,0,0,1,4,.89,5.55,5.55,0,0,1,2.36,2.61,10,10,0,0,1,.78,4.15V88a10,10,0,0,1-.78,4.15,5.55,5.55,0,0,1-2.36,2.61,8.06,8.06,0,0,1-4,.89Z" transform="translate(0 -1.39)"/><path class="cls-1" d="M184.19,95.29v-22h5.18v2.21a11.29,11.29,0,0,1,2.5-1.85,5.87,5.87,0,0,1,2.83-.7,3.24,3.24,0,0,1,2.17.67,3.77,3.77,0,0,1,1.18,1.77,7.09,7.09,0,0,1,.38,2.39V95.29h-5.17V78.8a3,3,0,0,0-.31-1.52,1.22,1.22,0,0,0-1.18-.53,2.74,2.74,0,0,0-1.16.3,7.81,7.81,0,0,0-1.24.76V95.29Z" transform="translate(0 -1.39)"/><path class="cls-1" d="M132,95.63a4.2,4.2,0,0,1-2.55-.78,5.17,5.17,0,0,1-1.64-2,5.74,5.74,0,0,1-.57-2.49,6.83,6.83,0,0,1,2.78-5.83,14.37,14.37,0,0,1,2.86-1.65c1.06-.47,2.14-.9,3.23-1.28v-1.9a8,8,0,0,0-.13-1.6,1.85,1.85,0,0,0-.49-1,1.61,1.61,0,0,0-1.13-.35A1.57,1.57,0,0,0,132.77,78a5.6,5.6,0,0,0-.21,1.27l-.07,1.33-4.91-.19c.07-2.53.7-4.41,1.88-5.61s3-1.81,5.39-1.81c2.21,0,3.81.61,4.82,1.83a7.58,7.58,0,0,1,1.5,5V89.88c0,.82,0,1.55.06,2.21s.09,1.26.15,1.79.12,1,.17,1.41h-4.64c-.08-.51-.18-1.09-.29-1.73s-.2-1.13-.25-1.43a5.63,5.63,0,0,1-1.44,2.42A3.91,3.91,0,0,1,132,95.63Zm1.91-3.84a1.91,1.91,0,0,0,.93-.25,3.81,3.81,0,0,0,.78-.59,2.89,2.89,0,0,0,.49-.61V84.21c-.55.33-1.08.66-1.58,1a7.69,7.69,0,0,0-1.29,1.08,4.29,4.29,0,0,0-.84,1.28,4.16,4.16,0,0,0-.28,1.6,3.37,3.37,0,0,0,.47,1.92A1.52,1.52,0,0,0,133.94,91.79Z" transform="translate(0 -1.39)"/><path class="cls-1" d="M194,49.94a7.84,7.84,0,0,1-4-.93,5.57,5.57,0,0,1-2.3-2.74,11.59,11.59,0,0,1-.74-4.36V35.28a11.61,11.61,0,0,1,.74-4.41A5.44,5.44,0,0,1,190,28.16a8,8,0,0,1,4-.91,7.23,7.23,0,0,1,4.09,1,5.41,5.41,0,0,1,2.1,2.87,14.62,14.62,0,0,1,.63,4.59v3.12H192v4.34a6.13,6.13,0,0,0,.21,1.76,1.77,1.77,0,0,0,.67,1,2,2,0,0,0,1.1.3,1.77,1.77,0,0,0,1.1-.32,1.88,1.88,0,0,0,.61-1,5.37,5.37,0,0,0,.19-1.58V41.53h4.84V43a7.22,7.22,0,0,1-1.68,5.14C198,49.35,196.27,49.94,194,49.94ZM192,36.27h3.88V34.18a7.19,7.19,0,0,0-.19-1.85,1.9,1.9,0,0,0-.61-1,1.93,1.93,0,0,0-1.18-.32,1.68,1.68,0,0,0-1.1.34,2.06,2.06,0,0,0-.61,1.14,10.37,10.37,0,0,0-.19,2.29Z" transform="translate(0 -1.39)"/><path class="cls-1" d="M151.15,95.56a6.64,6.64,0,0,1-3.3-.69,3.78,3.78,0,0,1-1.69-2,8.61,8.61,0,0,1-.5-3.08V76.71h-2.2V73.28h2.2V66.69h5.22v6.59h3.35v3.43h-3.35V89.35a2.2,2.2,0,0,0,.49,1.62,2.07,2.07,0,0,0,1.49.47c.28,0,.55,0,.82,0l.78-.08v4l-1.51.17A17.13,17.13,0,0,1,151.15,95.56Z" transform="translate(0 -1.39)"/><path class="cls-1" d="M83.89,27.25a8.08,8.08,0,0,1,4,.89,5.61,5.61,0,0,1,2.36,2.61A10,10,0,0,1,91,34.9v7.39a10,10,0,0,1-.78,4.15,5.61,5.61,0,0,1-2.36,2.61,8.08,8.08,0,0,1-4,.89l0-3.58a1.6,1.6,0,0,0,1.29-.49,2.52,2.52,0,0,0,.53-1.35,13.76,13.76,0,0,0,.12-1.89V34.56a13.26,13.26,0,0,0-.12-1.87,2.62,2.62,0,0,0-.53-1.35,1.57,1.57,0,0,0-1.29-.51Z" transform="translate(0 -1.39)"/></g></g></svg>