<svg xmlns="http://www.w3.org/2000/svg" xmlns:xlink="http://www.w3.org/1999/xlink" viewBox="0 0 126.09 126.09"><defs><style>.cls-1{fill:none;stroke-miterlimit:10;stroke-width:9px;stroke:url(#linear-gradient);}.cls-2{fill:url(#linear-gradient-2);}.cls-3{fill:#231f20;}.cls-4{fill:#fff;}</style><linearGradient id="linear-gradient" x1="9.13" y1="74.84" x2="111.66" y2="74.84" gradientUnits="userSpaceOnUse"><stop offset="0" stop-color="#00aeef"/><stop offset="0.03" stop-color="#0aa8eb"/><stop offset="0.24" stop-color="#4d83cf"/><stop offset="0.43" stop-color="#8565b8"/><stop offset="0.61" stop-color="#b14da6"/><stop offset="0.77" stop-color="#d03b99"/><stop offset="0.91" stop-color="#e33191"/><stop offset="1" stop-color="#ea2d8e"/></linearGradient><linearGradient id="linear-gradient-2" x1="9.13" y1="62.91" x2="111.66" y2="62.91" xlink:href="#linear-gradient"/></defs><g id="Layer_2" data-name="Layer 2"><g id="Layer_1-2" data-name="Layer 1"><g id="layer1"><path id="hoekje_onder" data-name="hoekje onder" d="M62.59,95.69c-.77-.59,14.23,14.12,14.47,14.3H62.59V95.69Z"/><path id="maindriehoek" d="M50,34.46C57.15,41.63,71.47,56,71.47,56S50,77.46,50,77.48Z"/><polyline class="cls-1" points="12.16 90.2 43.08 62.1 69.47 83.97 92.92 61.95"/><polygon class="cls-2" points="94.67 78.59 89.68 64.99 76.42 59.15 108.58 47.23 94.67 78.59"/><path id="Driehoek_onder" data-name="Driehoek onder" d="M40.08,88.8,61.59,67.29s0,42.9-.06,42.92Z"/><path id="driehoekbovenmid" d="M50.08,33.23H80.29l-15.1,15Z"/><path id="blokje" d="M34.57,33.23H49V47.44H34.57Z"/><path id="hoekjelinksboven" d="M33.57,47.44S19.16,33.21,19.18,33.21l14.39,0Z"/><path id="raarding" d="M87.68,27.23h14.2L87.08,42H72.87Z"/></g><path class="cls-3" d="M63,5A58,58,0,1,1,5,63,58,58,0,0,1,63,5m0-5a63,63,0,1,0,63.05,63A63.11,63.11,0,0,0,63,0Z"/><path class="cls-4" d="M63,10A53,53,0,1,1,10,63,53.11,53.11,0,0,1,63,10m0-5a58,58,0,1,0,58.05,58A58,58,0,0,0,63,5Z"/></g></g></svg>