<?xml version="1.0" encoding="utf-8"?>
<svg version="1.1" id="Layer_1" xmlns="http://www.w3.org/2000/svg" xmlns:xlink="http://www.w3.org/1999/xlink" x="0px" y="0px"
	 viewBox="0 0 361 361" style="enable-background:new 0 0 874 361;" xml:space="preserve">
<style type="text/css">
	.st0{fill-rule:evenodd;clip-rule:evenodd;fill:#000105;}
	.st1{filter:url(#Adobe_OpacityMaskFilter);}
	.st2{fill-rule:evenodd;clip-rule:evenodd;fill:#FFFFFF;}
	.st3{mask:url(#mask-2_1_);fill-rule:evenodd;clip-rule:evenodd;fill:#000105;}
	.st4{filter:url(#Adobe_OpacityMaskFilter_1_);}
	.st5{mask:url(#mask-2_2_);fill-rule:evenodd;clip-rule:evenodd;fill:#000105;}
	.st6{filter:url(#Adobe_OpacityMaskFilter_2_);}
	.st7{mask:url(#mask-2_3_);fill-rule:evenodd;clip-rule:evenodd;fill:#000105;}
</style>
<g id="Page-1">
	<g>
		<path id="Fill-1" class="st0" d="M188.2,297.4c-3.1-2.6,61.9,61.4,62.9,62.4h-62.9V297.4z"/>
		<polygon id="Fill-3" class="st0" points="90.5,267.8 184.1,174.2 184.1,360.8 		"/>
		<polygon id="Fill-5" class="st0" points="133.6,31.2 227.2,124.8 133.6,217.8 		"/>
		<polygon id="Fill-7" class="st0" points="134.1,26 265.7,26 200.2,91 		"/>
		<g id="Clip-10">
		</g>
		<defs>
			<filter id="Adobe_OpacityMaskFilter" filterUnits="userSpaceOnUse" x="66.6" y="26" width="62.4" height="61.9">
				<feColorMatrix  type="matrix" values="1 0 0 0 0  0 1 0 0 0  0 0 1 0 0  0 0 0 1 0"/>
			</filter>
		</defs>
		<mask maskUnits="userSpaceOnUse" x="66.6" y="26" width="62.4" height="61.9" id="mask-2_1_">
			<g class="st1">
				<polygon id="path-1_1_" class="st2" points="0,360.8 873.1,360.8 873.1,0 0,0 				"/>
			</g>
		</mask>
		<polygon id="Fill-9" class="st3" points="66.6,87.9 128.9,87.9 128.9,26 66.6,26 		"/>
		<defs>
			<filter id="Adobe_OpacityMaskFilter_1_" filterUnits="userSpaceOnUse" x="0" y="26" width="62.4" height="61.9">
				<feColorMatrix  type="matrix" values="1 0 0 0 0  0 1 0 0 0  0 0 1 0 0  0 0 0 1 0"/>
			</filter>
		</defs>
		<mask maskUnits="userSpaceOnUse" x="0" y="26" width="62.4" height="61.9" id="mask-2_2_">
			<g class="st4">
				<polygon id="path-1_2_" class="st2" points="0,360.8 873.1,360.8 873.1,0 0,0 				"/>
			</g>
		</mask>
		<path id="Fill-11" class="st5" d="M62.4,87.9C62.4,87.9-0.5,26,0,26h62.4"/>
		<defs>
			<filter id="Adobe_OpacityMaskFilter_2_" filterUnits="userSpaceOnUse" x="232.9" y="0" width="126.3" height="64.5">
				<feColorMatrix  type="matrix" values="1 0 0 0 0  0 1 0 0 0  0 0 1 0 0  0 0 0 1 0"/>
			</filter>
		</defs>
		<mask maskUnits="userSpaceOnUse" x="232.9" y="0" width="126.3" height="64.5" id="mask-2_3_">
			<g class="st6">
				<polygon id="path-1_3_" class="st2" points="0,360.8 873.1,360.8 873.1,0 0,0 				"/>
			</g>
		</mask>
		<polygon id="Fill-12" class="st7" points="297.4,0 359.3,0 294.8,64.5 232.9,64.5 		"/>
	</g>
</g>
</svg>
